<svg width="82" height="39" viewBox="0 0 82 39" fill="none" xmlns="http://www.w3.org/2000/svg">
<rect x="0.0688477" width="81" height="39" rx="7.83054" fill="white"/>
<path d="M33.9907 15.5781C33.3813 15.0156 33.3813 14.0312 33.9907 13.4688L39.9907 7.46875C40.272 7.1875 40.647 7 41.0688 7C41.4438 7 41.8188 7.1875 42.1001 7.46875L48.1001 13.4688C48.7095 14.0312 48.7095 15.0156 48.1001 15.5781C47.5376 16.1875 46.5532 16.1875 45.9907 15.5781L42.5688 12.1562V23.5C42.5688 24.3438 41.8657 25 41.0688 25C40.2251 25 39.5688 24.3438 39.5688 23.5V12.1562L36.1001 15.5781C35.5376 16.1875 34.5532 16.1875 33.9907 15.5781ZM51.5688 23.5C52.3657 23.5 53.0688 24.2031 53.0688 25V29.5C53.0688 30.3438 52.3657 31 51.5688 31H30.5688C29.7251 31 29.0688 30.3438 29.0688 29.5V25C29.0688 24.2031 29.7251 23.5 30.5688 23.5H38.0688C38.0688 25.1875 39.3813 26.5 41.0688 26.5C42.7095 26.5 44.0688 25.1875 44.0688 23.5H51.5688ZM49.3188 28.375C49.9282 28.375 50.4438 27.9062 50.4438 27.25C50.4438 26.6406 49.9282 26.125 49.3188 26.125C48.6626 26.125 48.1938 26.6406 48.1938 27.25C48.1938 27.9062 48.6626 28.375 49.3188 28.375Z" fill="#2F4157"/>
</svg>
